#N canvas 410 129 980 583 10;
#X obj 19 334 makenote 100 250;
#X floatatom 19 313 5 0 0 0 - - -, f 5;
#X obj 19 354 pack;
#X obj 12 164 bng 15 250 50 0 empty empty empty 17 7 0 10 -261234 -1
-1;
#N canvas 258 191 1182 478 quickInterface 0;
#X obj 115 338 list prepend 1;
#X obj 117 236 hsl 128 15 0 8 0 0 empty empty empty -2 -8 0 10 -262144
-1 -1 0 1;
#X floatatom 114 256 5 0 0 0 - - -, f 5;
#X msg 114 276 ratio \$1;
#X obj 183 272 hsl 128 15 0 1 0 0 empty empty empty -2 -8 0 10 -262144
-1 -1 0 1;
#X floatatom 180 292 5 0 0 0 - - -, f 5;
#X msg 180 312 level \$1;
#X obj 115 359 route list;
#X text 205 333 este le pone un 1 \; antes a todo msje \; para especificar
\; que es para el \; osc nro 1;
#X obj 115 380 s \$0-oscMsgs;
#X obj 242 69 hsl 128 15 5 500 0 1 empty empty empty -2 -8 0 10 -262144
-1 -1 300 1;
#X obj 250 95 hsl 128 15 50 5000 0 0 empty empty empty -2 -8 0 10 -262144
-1 -1 0 1;
#X obj 219 156 t b;
#X text 226 69 a;
#X text 234 95 r;
#X text 113 47 el t b se conecta \; dps de haber \; conectado \; los
sliders del \; adsr pq sino no \; lo hace en el \; orden correcto;
#X obj 412 232 hsl 128 15 0 8 0 0 empty empty empty -2 -8 0 10 -262144
-1 -1 0 1;
#X floatatom 409 252 5 0 0 0 - - -, f 5;
#X msg 409 272 ratio \$1;
#X obj 478 268 hsl 128 15 0 1 0 0 empty empty empty -2 -8 0 10 -262144
-1 -1 0 1;
#X floatatom 475 288 5 0 0 0 - - -, f 5;
#X msg 475 308 level \$1;
#X obj 410 355 route list;
#X obj 410 376 s \$0-oscMsgs;
#X obj 472 69 hsl 128 15 5 500 0 0 empty empty empty -2 -8 0 10 -262144
-1 -1 0 1;
#X obj 478 96 hsl 128 15 50 5000 0 0 empty empty empty -2 -8 0 10 -262144
-1 -1 0 1;
#X obj 429 148 t b;
#X text 456 69 a;
#X text 463 96 r;
#X obj 672 234 hsl 128 15 0 8 0 0 empty empty empty -2 -8 0 10 -262144
-1 -1 0 1;
#X floatatom 669 254 5 0 0 0 - - -, f 5;
#X msg 669 274 ratio \$1;
#X obj 738 270 hsl 128 15 0 1 0 0 empty empty empty -2 -8 0 10 -262144
-1 -1 0 1;
#X floatatom 735 290 5 0 0 0 - - -, f 5;
#X msg 735 310 level \$1;
#X obj 670 357 route list;
#X obj 670 378 s \$0-oscMsgs;
#X obj 731 65 hsl 128 15 5 500 0 0 empty empty empty -2 -8 0 10 -262144
-1 -1 0 1;
#X obj 734 99 hsl 128 15 50 5000 0 0 empty empty empty -2 -8 0 10 -262144
-1 -1 0 1;
#X obj 685 153 t b;
#X msg 653 207 env \$1 \$2 \$3 \$4;
#X text 715 65 a;
#X text 719 99 r;
#X obj 934 237 hsl 128 15 0 8 0 0 empty empty empty -2 -8 0 10 -262144
-1 -1 0 1;
#X floatatom 931 257 5 0 0 0 - - -, f 5;
#X msg 931 277 ratio \$1;
#X obj 1000 273 hsl 128 15 0 1 0 0 empty empty empty -2 -8 0 10 -262144
-1 -1 0 1;
#X floatatom 997 293 5 0 0 0 - - -, f 5;
#X msg 997 313 level \$1;
#X obj 932 360 route list;
#X obj 932 381 s \$0-oscMsgs;
#X obj 993 68 hsl 128 15 5 500 0 0 empty empty empty -2 -8 0 10 -262144
-1 -1 0 1;
#X obj 993 104 hsl 128 15 50 5000 0 0 empty empty empty -2 -8 0 10
-262144 -1 -1 0 1;
#X obj 968 147 t b;
#X msg 915 210 env \$1 \$2 \$3 \$4;
#X text 977 68 a;
#X text 978 104 r;
#X obj 410 334 list prepend 2;
#X obj 670 336 list prepend 3;
#X obj 932 339 list prepend 4;
#X text 270 39 ADSR OSC 1;
#X text 499 42 ADSR OSC 2;
#X text 748 40 ADSR OSC 3;
#X text 997 42 ADSR OSC 4;
#X obj 160 185 pack f 5000 100 f;
#X obj 393 182 pack f 5000 100 f;
#X obj 653 184 pack f 5000 100 f;
#X obj 916 187 pack f 5000 100 f;
#X msg 393 205 env \$1 \$2 \$3 \$4;
#X msg 159 208 env \$1 \$2 \$3 \$4;
#X floatatom 299 133 5 0 0 0 - - -, f 5;
#X connect 0 0 7 0;
#X connect 1 0 2 0;
#X connect 2 0 3 0;
#X connect 3 0 0 0;
#X connect 4 0 5 0;
#X connect 5 0 6 0;
#X connect 6 0 0 0;
#X connect 7 0 9 0;
#X connect 10 0 12 0;
#X connect 10 0 64 0;
#X connect 11 0 12 0;
#X connect 11 0 64 3;
#X connect 11 0 70 0;
#X connect 12 0 64 0;
#X connect 16 0 17 0;
#X connect 17 0 18 0;
#X connect 18 0 57 0;
#X connect 19 0 20 0;
#X connect 20 0 21 0;
#X connect 21 0 57 0;
#X connect 22 0 23 0;
#X connect 24 0 26 0;
#X connect 24 0 65 0;
#X connect 25 0 26 0;
#X connect 25 0 65 3;
#X connect 26 0 65 0;
#X connect 29 0 30 0;
#X connect 30 0 31 0;
#X connect 31 0 58 0;
#X connect 32 0 33 0;
#X connect 33 0 34 0;
#X connect 34 0 58 0;
#X connect 35 0 36 0;
#X connect 37 0 39 0;
#X connect 37 0 66 0;
#X connect 38 0 39 0;
#X connect 38 0 66 3;
#X connect 39 0 66 0;
#X connect 40 0 58 0;
#X connect 43 0 44 0;
#X connect 44 0 45 0;
#X connect 45 0 59 0;
#X connect 46 0 47 0;
#X connect 47 0 48 0;
#X connect 48 0 59 0;
#X connect 49 0 50 0;
#X connect 51 0 53 0;
#X connect 51 0 67 0;
#X connect 52 0 53 0;
#X connect 52 0 67 3;
#X connect 53 0 67 0;
#X connect 54 0 59 0;
#X connect 57 0 22 0;
#X connect 58 0 35 0;
#X connect 59 0 49 0;
#X connect 64 0 69 0;
#X connect 65 0 68 0;
#X connect 66 0 40 0;
#X connect 67 0 54 0;
#X connect 68 0 57 0;
#X connect 69 0 0 0;
#X restore 146 54 pd quickInterface;
#X floatatom 32 165 5 0 0 0 - - -, f 5;
#X obj 74 134 ftom;
#X obj 11 79 unpackOSC;
#X obj 81 165 tgl 15 0 empty empty empty 17 7 0 10 -262144 -1 -1 0
1;
#X obj 81 184 metro 1000;
#X floatatom 138 165 5 0 0 0 - - -, f 5;
#X obj 19 396 - 1;
#X obj 19 419 pack f f f;
#X obj 19 374 poly 8 1;
#X obj 131 523 dac~ 1 2;
#X obj 134 312 hradio 15 1 1 8 empty empty empty 0 -8 0 10 -262144
-1 -1 5;
#X obj 134 334 + 1;
#X msg 134 357 all algorithm \$1;
#X obj 274 312 hsl 45 15 0 1 0 1 empty empty empty -2 -8 0 10 -204786
-1 -1 1320 1;
#X floatatom 271 333 5 0 0 0 - - -, f 5;
#X msg 271 353 all feedback \$1;
#X obj 131 474 clone dx7poly 8;
#X obj 642 253 s \$0-to_dx7;
#X obj 272 383 r \$0-to_dx7;
#X obj 807 254 s \$0-to_dx7;
#X obj 642 512 s \$0-to_dx7;
#X obj 807 511 s \$0-to_dx7;
#X obj 269 122 bng 15 250 50 0 empty empty randomise 17 7 0 10 -260097
-1 -1;
#N canvas 394 423 737 455 randomisation 0;
#X obj 37 37 inlet;
#X obj 38 63 t b b b, f 64;
#X obj 419 90 t b b b b, f 25;
#X obj 570 123 t b b;
#X msg 597 154 1;
#N canvas 39 191 829 579 randomise_osc 0;
#X obj 24 17 inlet;
#X obj 760 32 inlet;
#X obj 199 397 outlet;
#X obj 49 75 random 4;
#X obj 49 98 sel 0 1 2 3;
#X obj 96 120 random 100;
#X obj 96 142 * 0.01;
#X floatatom 49 166 5 0 0 0 - - -, f 5;
#X obj 49 187 pack f f;
#X msg 49 210 \$2 level \$1;
#X obj 68 54 bng 15 250 50 0 empty empty empty 17 7 0 10 -262144 -1
-1;
#X msg 49 124 0.75;
#X text 60 16 bang;
#X text 706 32 nro osc;
#X obj 196 97 sel 0 1 2 3;
#X floatatom 188 170 5 0 0 0 - - -, f 5;
#X obj 188 192 pack f f;
#X obj 250 147 + 1;
#X msg 188 216 \$2 ratio \$1;
#X obj 196 74 random 4;
#X obj 397 85 t b b b b, f 46;
#X text 402 103 a;
#X text 676 103 r;
#X obj 361 153 random 8;
#X obj 361 176 sel 0 1 2 3 4 5 6 7;
#X msg 445 230 5;
#X obj 362 230 random 2000;
#X obj 361 297 pack f f f f f, f 68;
#X msg 361 321 \$5 env \$1 \$2 \$3 \$4;
#X text 103 77 level;
#X text 249 81 ratio;
#X text 398 66 env;
#X obj 498 147 random 100;
#X obj 498 168 * 0.01;
#X obj 498 189 *;
#X obj 498 210 *;
#X obj 498 231 * 3000;
#X obj 673 170 random 100;
#X obj 673 191 * 0.01;
#X obj 673 212 *;
#X obj 673 233 * 3000;
#X text 494 102 d;
#X text 586 103 s;
#X obj 498 252 + 20;
#X obj 579 175 random 80;
#X obj 579 197 + 20;
#X msg 219 133 2;
#X msg 188 133 4;
#X obj 250 125 random 49;
#X connect 0 0 3 0;
#X connect 0 0 19 0;
#X connect 0 0 20 0;
#X connect 1 0 8 1;
#X connect 1 0 16 1;
#X connect 1 0 27 4;
#X connect 3 0 4 0;
#X connect 4 0 11 0;
#X connect 4 1 11 0;
#X connect 4 2 11 0;
#X connect 4 3 5 0;
#X connect 5 0 6 0;
#X connect 6 0 7 0;
#X connect 7 0 8 0;
#X connect 8 0 9 0;
#X connect 9 0 2 0;
#X connect 10 0 3 0;
#X connect 11 0 7 0;
#X connect 14 0 47 0;
#X connect 14 1 46 0;
#X connect 14 2 48 0;
#X connect 14 3 48 0;
#X connect 15 0 16 0;
#X connect 16 0 18 0;
#X connect 17 0 15 0;
#X connect 18 0 2 0;
#X connect 19 0 14 0;
#X connect 20 0 23 0;
#X connect 20 1 32 0;
#X connect 20 2 44 0;
#X connect 20 3 37 0;
#X connect 23 0 24 0;
#X connect 24 0 26 0;
#X connect 24 1 25 0;
#X connect 24 2 25 0;
#X connect 24 3 25 0;
#X connect 24 4 25 0;
#X connect 24 5 25 0;
#X connect 24 6 25 0;
#X connect 24 7 25 0;
#X connect 25 0 27 0;
#X connect 26 0 27 0;
#X connect 27 0 28 0;
#X connect 28 0 2 0;
#X connect 32 0 33 0;
#X connect 33 0 34 0;
#X connect 33 0 34 1;
#X connect 33 0 35 1;
#X connect 34 0 35 0;
#X connect 35 0 36 0;
#X connect 36 0 43 0;
#X connect 37 0 38 0;
#X connect 38 0 39 0;
#X connect 38 0 39 1;
#X connect 39 0 40 0;
#X connect 40 0 27 3;
#X connect 43 0 27 1;
#X connect 44 0 45 0;
#X connect 45 0 27 2;
#X connect 46 0 15 0;
#X connect 47 0 15 0;
#X connect 48 0 17 0;
#X restore 426 235 pd randomise_osc;
#X obj 518 123 t b b;
#X obj 468 123 t b b;
#X obj 420 123 t b b;
#X msg 545 154 2;
#X msg 495 154 3;
#X msg 447 154 4;
#X obj 427 314 outlet;
#X obj 37 154 + 1;
#X obj 40 302 outlet;
#X obj 223 160 random 4;
#X obj 223 181 sel 0 1 2 3;
#X msg 223 210 0;
#X floatatom 222 285 5 0 0 0 - - -, f 5;
#X obj 222 305 outlet;
#X obj 279 222 random 100;
#X obj 279 247 * 0.01;
#X text 430 75 parametros para cada oscilador;
#X text 250 86 feedback;
#X text 44 82 nro de algoritmo;
#X obj 37 129 random 7;
#X msg 250 233 0.3;
#X obj 677 14 inlet;
#X obj 11 29 bng 15 250 50 0 empty empty empty 17 7 0 10 -262144 -1
-1;
#X obj 191 41 bng 15 250 50 0 empty empty empty 17 7 0 10 -262144 -1
-1;
#X msg 7 129 0;
#X obj 625 209 t b b b b;
#X msg 437 289 \$1 level 0.5 \, \$1 ratio 0.5 \, \$1 env 5 250 50 1000
;
#X msg 580 240 1;
#X msg 612 243 2;
#X msg 642 245 3;
#X msg 678 253 4;
#X connect 0 0 1 0;
#X connect 1 0 25 0;
#X connect 1 1 15 0;
#X connect 1 2 2 0;
#X connect 2 0 8 0;
#X connect 2 1 7 0;
#X connect 2 2 6 0;
#X connect 2 3 3 0;
#X connect 3 0 5 0;
#X connect 3 1 4 0;
#X connect 4 0 5 1;
#X connect 5 0 12 0;
#X connect 6 0 5 0;
#X connect 6 1 9 0;
#X connect 7 0 5 0;
#X connect 7 1 10 0;
#X connect 8 0 5 0;
#X connect 8 1 11 0;
#X connect 9 0 5 1;
#X connect 10 0 5 1;
#X connect 11 0 5 1;
#X connect 13 0 14 0;
#X connect 15 0 16 0;
#X connect 16 0 17 0;
#X connect 16 1 17 0;
#X connect 16 2 26 0;
#X connect 16 3 20 0;
#X connect 17 0 18 0;
#X connect 18 0 19 0;
#X connect 20 0 21 0;
#X connect 21 0 18 0;
#X connect 25 0 13 0;
#X connect 26 0 18 0;
#X connect 27 0 28 0;
#X connect 27 0 29 0;
#X connect 27 0 31 0;
#X connect 28 0 30 0;
#X connect 29 0 17 0;
#X connect 30 0 14 0;
#X connect 31 0 33 0;
#X connect 31 1 34 0;
#X connect 31 2 35 0;
#X connect 31 3 36 0;
#X connect 32 0 12 0;
#X connect 33 0 32 0;
#X connect 34 0 32 0;
#X connect 35 0 32 0;
#X connect 36 0 32 0;
#X restore 238 184 pd randomisation;
#X obj 642 48 dx7_osc_interface 1;
#X obj 131 498 *~ 0.5;
#X obj 642 10 r \$0-to_interface;
#X obj 642 277 r \$0-to_interface;
#X obj 342 223 s \$0-to_interface;
#X obj 81 226 + 32;
#X obj 81 205 random 30;
#X obj 357 122 bng 15 250 50 0 empty empty reset 17 7 0 10 -258113
-1 -1;
#X obj 11 55 udpreceive 6170;
#X obj 807 48 dx7_osc_interface 2;
#X obj 642 305 dx7_osc_interface 3;
#X obj 807 304 dx7_osc_interface 4;
#N canvas 300 158 450 300 controlRouter 0;
#X floatatom 36 102 5 0 0 0 - - -, f 5;
#X obj 36 81 routeOSC /OscilatorID /Parameter /Value, f 62;
#X floatatom 282 100 5 0 0 0 - - -, f 5;
#X obj 113 229 pack f s f;
#X msg 114 177 symbol ratio;
#X msg 134 158 symbol level;
#X obj 39 35 inlet;
#X obj 118 264 outlet;
#X obj 241 258 print;
#X obj 113 102 route 1 2 3 4;
#X msg 156 140 symbol attack;
#X msg 176 121 symbol release;
#X connect 0 0 3 0;
#X connect 1 0 0 0;
#X connect 1 1 9 0;
#X connect 1 2 2 0;
#X connect 2 0 3 2;
#X connect 3 0 7 0;
#X connect 3 0 8 0;
#X connect 4 0 3 1;
#X connect 5 0 3 1;
#X connect 6 0 1 0;
#X connect 9 0 4 0;
#X connect 9 1 5 0;
#X connect 9 2 10 0;
#X connect 9 3 11 0;
#X connect 10 0 3 1;
#X connect 11 0 3 1;
#X restore 347 184 pd controlRouter;
#X obj 11 102 routeOSC /RotoPadBang /RotoPadFreq /AlgNum /RandomBang
/ResetBang /RotoPadInterface, f 87;
#X obj 457 223 routeOSC /Feedback;
#X connect 0 0 2 0;
#X connect 0 1 2 1;
#X connect 1 0 0 0;
#X connect 2 0 13 0;
#X connect 3 0 1 0;
#X connect 5 0 1 0;
#X connect 6 0 5 0;
#X connect 7 0 42 0;
#X connect 8 0 9 0;
#X connect 9 0 35 0;
#X connect 10 0 9 1;
#X connect 11 0 12 0;
#X connect 12 0 21 0;
#X connect 13 0 11 0;
#X connect 13 1 12 1;
#X connect 13 2 12 2;
#X connect 15 0 16 0;
#X connect 16 0 17 0;
#X connect 17 0 21 0;
#X connect 18 0 19 0;
#X connect 19 0 20 0;
#X connect 20 0 21 0;
#X connect 21 0 30 0;
#X connect 23 0 21 0;
#X connect 27 0 28 0;
#X connect 28 0 15 0;
#X connect 28 1 18 0;
#X connect 28 2 33 0;
#X connect 29 0 22 0;
#X connect 30 0 14 0;
#X connect 30 0 14 1;
#X connect 31 0 29 0;
#X connect 31 0 38 0;
#X connect 32 0 39 0;
#X connect 32 0 40 0;
#X connect 34 0 1 0;
#X connect 35 0 34 0;
#X connect 36 0 28 1;
#X connect 37 0 7 0;
#X connect 38 0 24 0;
#X connect 39 0 25 0;
#X connect 40 0 26 0;
#X connect 41 0 33 0;
#X connect 42 0 3 0;
#X connect 42 1 6 0;
#X connect 42 2 15 0;
#X connect 42 3 27 0;
#X connect 42 4 36 0;
#X connect 42 5 41 0;
#X connect 42 5 43 0;
#X connect 43 0 18 0;
