#N canvas 787 86 625 556 10;
#X obj 112 120 hsl 128 15 0 64 0 0 empty empty ratio -2 -8 0 10 -262144
-1 -1 12700 1;
#X floatatom 109 135 5 0 0 0 - - -, f 5;
#X msg 28 263 ratio \$1;
#X obj 112 174 hsl 128 15 0 1 0 0 empty empty level -2 -8 0 10 -262144
-1 -1 10026 1;
#X floatatom -9 270 5 0 0 0 - - -, f 5;
#X msg -9 290 level \$1;
#X obj 20 417 route list;
#X text 93 413 este le pone un 1 \; antes a todo msje \; para especificar
\; que es para el \; osc nro 1;
#X obj 112 211 hsl 128 15 5 500 0 1 empty empty attack -2 -8 0 10 -262144
-1 -1 0 1;
#X obj 113 247 hsl 128 15 50 5000 0 0 empty empty release -2 -8 0 10
-262144 -1 -1 2437 1;
#X obj 78 323 t b;
#X text 174 306 el t b se conecta \; dps de haber \; conectado \; los
sliders del \; adsr pq sino no \; lo hace en el \; orden correcto;
#X msg 52 370 env \$1 \$2 \$3 \$4;
#X floatatom 110 323 5 0 0 0 - - -, f 5;
#X obj 20 438 outlet;
#X obj 265 4 inlet;
#X obj 265 30 route \$1;
#X obj 324 30 route allOscs;
#X obj 348 147 unpack f f f f;
#X obj 295 81 loadbang;
#X obj 295 119 float \$1;
#X floatatom 228 139 2 0 0 0 - - -, f 2;
#X text 204 139 OSC;
#X obj -9 99 i;
#X obj -9 142 sel 0;
#X msg -9 163 0.5;
#X obj 20 397 list prepend all toOscs \$1;
#X obj 355 105 loadbang;
#X msg 355 126 5 250 50 1000;
#X obj 53 347 pack f 250 50 f;
#X msg 265 103 0.5;
#X obj 43 47 loadbang;
#X obj -9 120 / 4;
#X msg 43 69 2;
#X obj 265 56 route ratio level env attack release;
#X floatatom 349 166 5 0 0 0 - - -, f 5;
#X floatatom 453 187 5 0 0 0 - - -, f 5;
#X connect 0 0 23 0;
#X connect 1 0 2 0;
#X connect 2 0 26 0;
#X connect 3 0 4 0;
#X connect 4 0 5 0;
#X connect 5 0 26 0;
#X connect 6 0 14 0;
#X connect 8 0 10 0;
#X connect 8 0 29 0;
#X connect 9 0 10 0;
#X connect 9 0 13 0;
#X connect 9 0 29 3;
#X connect 10 0 29 0;
#X connect 12 0 26 0;
#X connect 15 0 16 0;
#X connect 15 0 17 0;
#X connect 16 0 34 0;
#X connect 17 0 34 0;
#X connect 18 0 8 0;
#X connect 18 3 9 0;
#X connect 19 0 20 0;
#X connect 19 0 30 0;
#X connect 20 0 21 0;
#X connect 23 0 32 0;
#X connect 24 0 25 0;
#X connect 24 1 1 0;
#X connect 25 0 1 0;
#X connect 26 0 6 0;
#X connect 27 0 28 0;
#X connect 28 0 18 0;
#X connect 29 0 12 0;
#X connect 30 0 3 0;
#X connect 31 0 33 0;
#X connect 32 0 24 0;
#X connect 33 0 0 0;
#X connect 34 0 0 0;
#X connect 34 1 3 0;
#X connect 34 2 18 0;
#X connect 34 3 35 0;
#X connect 34 4 36 0;
#X connect 35 0 8 0;
#X connect 36 0 9 0;
#X coords 0 -1 1 1 150 200 2 100 100;
