#N canvas 622 209 342 527 10;
#X obj 24 285 pmOsc 1;
#X obj 63 265 r \$0-oscMsgs;
#X obj 24 245 receive~ \$0-osc1In;
#X obj 24 305 send~ \$0-osc1Out;
#X obj 213 266 r \$0-oscMsgs;
#X obj 63 366 r \$0-oscMsgs;
#X obj 213 367 r \$0-oscMsgs;
#X obj 174 246 receive~ \$0-osc2In;
#X obj 174 286 pmOsc 2;
#X obj 174 306 send~ \$0-osc2Out;
#X obj 24 346 receive~ \$0-osc3In;
#X obj 24 386 pmOsc 3;
#X obj 24 406 send~ \$0-osc3Out;
#X obj 174 347 receive~ \$0-osc4In;
#X obj 174 387 pmOsc 4;
#X obj 174 407 send~ \$0-osc4Out;
#X obj 27 447 receive~ \$0-output;
#N canvas 494 210 946 493 routing 0;
#X obj 23 20 receive~ \$0-osc1Out;
#X obj 152 20 receive~ \$0-osc2Out;
#X obj 281 20 receive~ \$0-osc3Out;
#X obj 410 20 receive~ \$0-osc4Out;
#X obj 25 437 send~ \$0-osc1In;
#X obj 134 438 send~ \$0-osc2In;
#X obj 241 438 send~ \$0-osc3In;
#X obj 346 439 send~ \$0-osc4In;
#X obj 458 437 send~ \$0-output;
#N canvas 563 369 568 336 routing1 0;
#X obj 20 16 inlet~;
#X obj 18 178 *~;
#X obj 20 293 outlet~;
#X obj 92 248 *~;
#X obj 164 225 *~;
#X obj 235 201 *~;
#X obj 92 293 outlet~;
#X obj 164 292 outlet~;
#X obj 235 292 outlet~;
#X obj 250 177 r \$0-r14;
#X obj 179 201 r \$0-r13;
#X obj 107 224 r \$0-r12;
#X obj 33 154 r \$0-r11;
#X obj 326 110 r \$0-r1out;
#X obj 311 133 *~;
#X obj 312 298 outlet~;
#X obj 18 266 *~;
#X obj 34 201 r \$0-feedback;
#X connect 0 0 1 0;
#X connect 0 0 3 0;
#X connect 0 0 4 0;
#X connect 0 0 5 0;
#X connect 0 0 14 0;
#X connect 1 0 16 0;
#X connect 3 0 6 0;
#X connect 4 0 7 0;
#X connect 5 0 8 0;
#X connect 9 0 5 1;
#X connect 10 0 4 1;
#X connect 11 0 3 1;
#X connect 12 0 1 1;
#X connect 13 0 14 1;
#X connect 14 0 15 0;
#X connect 16 0 2 0;
#X connect 17 0 16 1;
#X restore 23 46 pd routing1;
#N canvas 593 416 568 336 routing2 0;
#X obj 20 16 inlet~;
#X obj 20 271 *~;
#X obj 20 293 outlet~;
#X obj 92 248 *~;
#X obj 164 225 *~;
#X obj 235 201 *~;
#X obj 92 293 outlet~;
#X obj 164 292 outlet~;
#X obj 235 292 outlet~;
#X obj 309 131 *~;
#X obj 310 296 outlet~;
#X obj 35 247 r \$0-r21;
#X obj 107 224 r \$0-r22;
#X obj 179 201 r \$0-r23;
#X obj 251 177 r \$0-r24;
#X obj 324 108 r \$0-r2out;
#X obj 122 247 r \$0-feedback;
#X obj 94 269 *~;
#X connect 0 0 1 0;
#X connect 0 0 3 0;
#X connect 0 0 4 0;
#X connect 0 0 5 0;
#X connect 0 0 9 0;
#X connect 1 0 2 0;
#X connect 3 0 17 0;
#X connect 4 0 7 0;
#X connect 5 0 8 0;
#X connect 9 0 10 0;
#X connect 11 0 1 1;
#X connect 12 0 3 1;
#X connect 13 0 4 1;
#X connect 14 0 5 1;
#X connect 15 0 9 1;
#X connect 16 0 17 1;
#X connect 17 0 6 0;
#X restore 152 46 pd routing2;
#N canvas 593 416 568 336 routing3 0;
#X obj 20 16 inlet~;
#X obj 20 271 *~;
#X obj 20 293 outlet~;
#X obj 92 248 *~;
#X obj 164 225 *~;
#X obj 235 201 *~;
#X obj 92 293 outlet~;
#X obj 164 292 outlet~;
#X obj 235 292 outlet~;
#X obj 306 134 *~;
#X obj 307 299 outlet~;
#X obj 35 247 r \$0-r31;
#X obj 107 224 r \$0-r32;
#X obj 179 201 r \$0-r33;
#X obj 251 177 r \$0-r34;
#X obj 321 111 r \$0-r3out;
#X obj 164 264 *~;
#X obj 179 244 r \$0-feedback;
#X connect 0 0 1 0;
#X connect 0 0 3 0;
#X connect 0 0 4 0;
#X connect 0 0 5 0;
#X connect 0 0 9 0;
#X connect 1 0 2 0;
#X connect 3 0 6 0;
#X connect 4 0 16 0;
#X connect 5 0 8 0;
#X connect 9 0 10 0;
#X connect 11 0 1 1;
#X connect 12 0 3 1;
#X connect 13 0 4 1;
#X connect 14 0 5 1;
#X connect 15 0 9 1;
#X connect 16 0 7 0;
#X connect 17 0 16 1;
#X restore 281 46 pd routing3;
#N canvas 593 416 568 336 routing4 0;
#X obj 20 16 inlet~;
#X obj 20 271 *~;
#X obj 20 293 outlet~;
#X obj 92 248 *~;
#X obj 164 225 *~;
#X obj 235 201 *~;
#X obj 92 293 outlet~;
#X obj 164 292 outlet~;
#X obj 235 292 outlet~;
#X obj 337 135 *~;
#X obj 338 300 outlet~;
#X obj 35 247 r \$0-r41;
#X obj 107 224 r \$0-r42;
#X obj 179 201 r \$0-r43;
#X obj 251 177 r \$0-r44;
#X obj 352 112 r \$0-r4out;
#X obj 235 248 *~;
#X obj 250 228 r \$0-feedback;
#X connect 0 0 1 0;
#X connect 0 0 3 0;
#X connect 0 0 4 0;
#X connect 0 0 5 0;
#X connect 0 0 9 0;
#X connect 1 0 2 0;
#X connect 3 0 6 0;
#X connect 4 0 7 0;
#X connect 5 0 16 0;
#X connect 9 0 10 0;
#X connect 11 0 1 1;
#X connect 12 0 3 1;
#X connect 13 0 4 1;
#X connect 14 0 5 1;
#X connect 15 0 9 1;
#X connect 16 0 8 0;
#X connect 17 0 16 1;
#X restore 410 45 pd routing4;
#X connect 0 0 9 0;
#X connect 1 0 10 0;
#X connect 2 0 11 0;
#X connect 3 0 12 0;
#X connect 9 0 4 0;
#X connect 9 1 5 0;
#X connect 9 2 6 0;
#X connect 9 3 7 0;
#X connect 9 4 8 0;
#X connect 10 0 4 0;
#X connect 10 1 5 0;
#X connect 10 2 6 0;
#X connect 10 3 7 0;
#X connect 10 4 8 0;
#X connect 11 0 4 0;
#X connect 11 1 5 0;
#X connect 11 2 6 0;
#X connect 11 3 7 0;
#X connect 11 4 8 0;
#X connect 12 0 4 0;
#X connect 12 1 5 0;
#X connect 12 2 6 0;
#X connect 12 3 7 0;
#X connect 12 4 8 0;
#X restore 184 476 pd routing;
#X obj 105 68 hsl 45 15 0 1 0 1 empty empty empty -2 -8 0 10 -204786
-1 -1 1200 1;
#X obj 102 110 s \$0-feedback;
#X floatatom 68 183 5 0 0 0 - - -, f 5;
#N canvas 10 175 802 586 algorithms 0;
#X obj 13 10 inlet;
#X floatatom 13 33 5 0 0 0 - - -, f 5;
#X msg 606 423 2 1 1;
#X text 646 417 conecta osc2 \; a osc1;
#X msg 589 461 2 1 0;
#X text 629 455 desconecta osc2 \; d osc1;
#N canvas 1083 616 450 300 rout_osc 0;
#X obj 18 15 inlet;
#X obj 18 46 t l l;
#X msg 18 74 \$3;
#X obj 108 149 unpack f f;
#X obj 165 171 makefilename \$0-r%%d%d;
#X msg 165 196 set \$1;
#X obj 165 220 makefilename;
#X obj 19 182 send;
#X connect 0 0 1 0;
#X connect 1 0 2 0;
#X connect 1 1 3 0;
#X connect 2 0 7 0;
#X connect 3 0 6 0;
#X connect 3 1 4 0;
#X connect 4 0 5 0;
#X connect 5 0 6 0;
#X connect 6 0 7 1;
#X restore 13 554 pd rout_osc;
#N canvas 766 396 450 300 rout_out 0;
#X obj 80 64 t l l;
#X obj 81 200 send;
#X msg 80 90 \$2;
#X msg 113 89 \$1;
#X obj 113 110 makefilename \$0-r%dout;
#X obj 80 41 inlet;
#X connect 0 0 2 0;
#X connect 0 1 3 0;
#X connect 2 0 1 0;
#X connect 3 0 4 0;
#X connect 4 0 1 1;
#X connect 5 0 0 0;
#X restore 23 506 pd rout_out;
#X msg 590 498 1 1 \, 3 1;
#X text 651 495 conecta osc1 \; y osc3 al \; output;
#N canvas 684 335 450 300 reset_all 0;
#X obj 109 24 inlet;
#X msg 54 78 1 1 0 \, 1 2 0 \, 1 3 0 \, 1 4 0 \, 1 5 0 \, 1 6 0;
#X msg 65 97 2 1 0 \, 2 2 0 \, 2 3 0 \, 2 4 0 \, 2 5 0 \, 2 6 0;
#X msg 76 116 3 1 0 \, 3 2 0 \, 3 3 0 \, 3 4 0 \, 3 5 0 \, 3 6 0;
#X msg 87 135 4 1 0 \, 4 2 0 \, 4 3 0 \, 4 4 0 \, 4 5 0 \, 4 6 0;
#X msg 98 154 5 1 0 \, 5 2 0 \, 5 3 0 \, 5 4 0 \, 5 5 0 \, 5 6 0;
#X msg 109 173 6 1 0 \, 6 2 0 \, 6 3 0 \, 6 4 0 \, 6 5 0 \, 6 6 0;
#X msg 158 206 1 0 \, 2 0 \, 3 0 \, 4 0 \, 5 0 \, 6 0;
#X obj 110 49 t b;
#X obj 81 24 bng 15 250 50 0 empty empty empty 17 7 0 10 -262144 -1
-1;
#N canvas 689 355 450 300 rout_osc 0;
#X obj 18 15 inlet;
#X obj 18 46 t l l;
#X msg 18 74 \$3;
#X obj 64 74 unpack f f;
#X obj 121 96 makefilename \$0-r%%d%d;
#X msg 121 121 set \$1;
#X obj 121 145 makefilename;
#X obj 19 182 send;
#X connect 0 0 1 0;
#X connect 1 0 2 0;
#X connect 1 1 3 0;
#X connect 2 0 7 0;
#X connect 3 0 6 0;
#X connect 3 1 4 0;
#X connect 4 0 5 0;
#X connect 5 0 6 0;
#X connect 6 0 7 1;
#X restore 67 205 pd rout_osc;
#N canvas 766 396 450 300 rout_out 0;
#X obj 80 64 t l l;
#X obj 81 200 send;
#X msg 80 90 \$2;
#X msg 113 89 \$1;
#X obj 113 110 makefilename \$0-r%dout;
#X obj 80 41 inlet;
#X connect 0 0 2 0;
#X connect 0 1 3 0;
#X connect 2 0 1 0;
#X connect 3 0 4 0;
#X connect 4 0 1 1;
#X connect 5 0 0 0;
#X restore 158 229 pd rout_out;
#X connect 0 0 8 0;
#X connect 1 0 10 0;
#X connect 2 0 10 0;
#X connect 3 0 10 0;
#X connect 4 0 10 0;
#X connect 5 0 10 0;
#X connect 6 0 10 0;
#X connect 7 0 11 0;
#X connect 8 0 1 0;
#X connect 8 0 2 0;
#X connect 8 0 3 0;
#X connect 8 0 4 0;
#X connect 8 0 5 0;
#X connect 8 0 6 0;
#X connect 8 0 7 0;
#X connect 9 0 8 0;
#X restore 40 78 pd reset_all;
#X obj 13 55 t f b;
#X obj 13 100 sel 1 2 3 4 5 6 7 8, f 60;
#X msg 23 483 1 1;
#X msg 13 529 2 1 1 \, 4 4 1 \, 4 3 1 \, 3 2 1;
#N canvas 766 396 450 300 rout_out 0;
#X obj 80 64 t l l;
#X obj 81 200 send;
#X msg 80 90 \$2;
#X msg 113 89 \$1;
#X obj 113 110 makefilename \$0-r%dout;
#X obj 80 41 inlet;
#X connect 0 0 2 0;
#X connect 0 1 3 0;
#X connect 2 0 1 0;
#X connect 3 0 4 0;
#X connect 4 0 1 1;
#X connect 5 0 0 0;
#X restore 109 460 pd rout_out;
#N canvas 1083 616 450 300 rout_osc 0;
#X obj 18 15 inlet;
#X obj 18 46 t l l;
#X msg 18 74 \$3;
#X obj 108 149 unpack f f;
#X obj 165 171 makefilename \$0-r%%d%d;
#X msg 165 196 set \$1;
#X obj 165 220 makefilename;
#X obj 19 182 send;
#X connect 0 0 1 0;
#X connect 1 0 2 0;
#X connect 1 1 3 0;
#X connect 2 0 7 0;
#X connect 3 0 6 0;
#X connect 3 1 4 0;
#X connect 4 0 5 0;
#X connect 5 0 6 0;
#X connect 6 0 7 1;
#X restore 99 506 pd rout_osc;
#X msg 109 438 1 1;
#X msg 99 483 4 4 1 \, 4 3 1 \, 4 2 1 \, 3 2 1 \, 2 1 1;
#N canvas 766 396 450 300 rout_out 0;
#X obj 80 64 t l l;
#X obj 81 200 send;
#X msg 80 90 \$2;
#X msg 113 89 \$1;
#X obj 113 110 makefilename \$0-r%dout;
#X obj 80 41 inlet;
#X connect 0 0 2 0;
#X connect 0 1 3 0;
#X connect 2 0 1 0;
#X connect 3 0 4 0;
#X connect 4 0 1 1;
#X connect 5 0 0 0;
#X restore 196 414 pd rout_out;
#N canvas 1083 616 450 300 rout_osc 0;
#X obj 18 15 inlet;
#X obj 18 46 t l l;
#X msg 18 74 \$3;
#X obj 108 149 unpack f f;
#X obj 165 171 makefilename \$0-r%%d%d;
#X msg 165 196 set \$1;
#X obj 165 220 makefilename;
#X obj 19 182 send;
#X connect 0 0 1 0;
#X connect 1 0 2 0;
#X connect 1 1 3 0;
#X connect 2 0 7 0;
#X connect 3 0 6 0;
#X connect 3 1 4 0;
#X connect 4 0 5 0;
#X connect 5 0 6 0;
#X connect 6 0 7 1;
#X restore 186 460 pd rout_osc;
#X msg 196 392 1 1;
#X text 176 530 ALGORITMO 1;
#X text 304 483 ALGORITMO 2;
#X msg 186 437 4 4 1 \, 4 1 1 \, 3 2 1 \, 2 1 1;
#N canvas 766 396 450 300 rout_out 0;
#X obj 80 64 t l l;
#X obj 81 200 send;
#X msg 80 90 \$2;
#X msg 113 89 \$1;
#X obj 113 110 makefilename \$0-r%dout;
#X obj 80 41 inlet;
#X connect 0 0 2 0;
#X connect 0 1 3 0;
#X connect 2 0 1 0;
#X connect 3 0 4 0;
#X connect 4 0 1 1;
#X connect 5 0 0 0;
#X restore 284 369 pd rout_out;
#N canvas 1083 616 450 300 rout_osc 0;
#X obj 18 15 inlet;
#X obj 18 46 t l l;
#X msg 18 74 \$3;
#X obj 108 149 unpack f f;
#X obj 165 171 makefilename \$0-r%%d%d;
#X msg 165 196 set \$1;
#X obj 165 220 makefilename;
#X obj 19 182 send;
#X connect 0 0 1 0;
#X connect 1 0 2 0;
#X connect 1 1 3 0;
#X connect 2 0 7 0;
#X connect 3 0 6 0;
#X connect 3 1 4 0;
#X connect 4 0 5 0;
#X connect 5 0 6 0;
#X connect 6 0 7 1;
#X restore 274 415 pd rout_osc;
#X msg 284 347 1 1;
#N canvas 766 396 450 300 rout_out 0;
#X obj 80 64 t l l;
#X obj 81 200 send;
#X msg 80 90 \$2;
#X msg 113 89 \$1;
#X obj 113 110 makefilename \$0-r%dout;
#X obj 80 41 inlet;
#X connect 0 0 2 0;
#X connect 0 1 3 0;
#X connect 2 0 1 0;
#X connect 3 0 4 0;
#X connect 4 0 1 1;
#X connect 5 0 0 0;
#X restore 370 323 pd rout_out;
#N canvas 1083 616 450 300 rout_osc 0;
#X obj 18 15 inlet;
#X obj 18 46 t l l;
#X msg 18 74 \$3;
#X obj 108 149 unpack f f;
#X obj 165 171 makefilename \$0-r%%d%d;
#X msg 165 196 set \$1;
#X obj 165 220 makefilename;
#X obj 19 182 send;
#X connect 0 0 1 0;
#X connect 1 0 2 0;
#X connect 1 1 3 0;
#X connect 2 0 7 0;
#X connect 3 0 6 0;
#X connect 3 1 4 0;
#X connect 4 0 5 0;
#X connect 5 0 6 0;
#X connect 6 0 7 1;
#X restore 360 369 pd rout_osc;
#X text 351 438 ALGORITMO 3;
#X msg 274 392 4 4 1 \, 4 3 1 \, 3 1 1 \, 2 1 1;
#X text 437 392 ALGORITMO 4;
#X msg 360 346 4 4 1 \, 4 3 1 \, 2 1 1;
#X msg 370 301 1 1 \, 3 1;
#X text 481 346 ALGORITMO 5;
#N canvas 766 396 450 300 rout_out 0;
#X obj 80 64 t l l;
#X obj 81 200 send;
#X msg 80 90 \$2;
#X msg 113 89 \$1;
#X obj 113 110 makefilename \$0-r%dout;
#X obj 80 41 inlet;
#X connect 0 0 2 0;
#X connect 0 1 3 0;
#X connect 2 0 1 0;
#X connect 3 0 4 0;
#X connect 4 0 1 1;
#X connect 5 0 0 0;
#X restore 455 278 pd rout_out;
#N canvas 1083 616 450 300 rout_osc 0;
#X obj 18 15 inlet;
#X obj 18 46 t l l;
#X msg 18 74 \$3;
#X obj 108 149 unpack f f;
#X obj 165 171 makefilename \$0-r%%d%d;
#X msg 165 196 set \$1;
#X obj 165 220 makefilename;
#X obj 19 182 send;
#X connect 0 0 1 0;
#X connect 1 0 2 0;
#X connect 1 1 3 0;
#X connect 2 0 7 0;
#X connect 3 0 6 0;
#X connect 3 1 4 0;
#X connect 4 0 5 0;
#X connect 5 0 6 0;
#X connect 6 0 7 1;
#X restore 445 324 pd rout_osc;
#X text 566 301 ALGORITMO 6;
#X msg 455 256 1 1 \, 2 1 \, 3 1;
#X msg 445 301 4 4 1 \, 4 3 1 \, 4 2 1;
#N canvas 766 396 450 300 rout_out 0;
#X obj 80 64 t l l;
#X obj 81 200 send;
#X msg 80 90 \$2;
#X msg 113 89 \$1;
#X obj 113 110 makefilename \$0-r%dout;
#X obj 80 41 inlet;
#X connect 0 0 2 0;
#X connect 0 1 3 0;
#X connect 2 0 1 0;
#X connect 3 0 4 0;
#X connect 4 0 1 1;
#X connect 5 0 0 0;
#X restore 555 233 pd rout_out;
#N canvas 1083 616 450 300 rout_osc 0;
#X obj 18 15 inlet;
#X obj 18 46 t l l;
#X msg 18 74 \$3;
#X obj 108 149 unpack f f;
#X obj 165 171 makefilename \$0-r%%d%d;
#X msg 165 196 set \$1;
#X obj 165 220 makefilename;
#X obj 19 182 send;
#X connect 0 0 1 0;
#X connect 1 0 2 0;
#X connect 1 1 3 0;
#X connect 2 0 7 0;
#X connect 3 0 6 0;
#X connect 3 1 4 0;
#X connect 4 0 5 0;
#X connect 5 0 6 0;
#X connect 6 0 7 1;
#X restore 545 279 pd rout_osc;
#X msg 555 211 1 1 \, 2 1 \, 3 1;
#X text 624 257 ALGORITMO 7;
#X msg 545 256 4 4 1 \, 4 3 1;
#N canvas 766 396 450 300 rout_out 0;
#X obj 80 64 t l l;
#X obj 81 200 send;
#X msg 80 90 \$2;
#X msg 113 89 \$1;
#X obj 113 110 makefilename \$0-r%dout;
#X obj 80 41 inlet;
#X connect 0 0 2 0;
#X connect 0 1 3 0;
#X connect 2 0 1 0;
#X connect 3 0 4 0;
#X connect 4 0 1 1;
#X connect 5 0 0 0;
#X restore 657 186 pd rout_out;
#N canvas 1083 616 450 300 rout_osc 0;
#X obj 18 15 inlet;
#X obj 18 46 t l l;
#X msg 18 74 \$3;
#X obj 108 149 unpack f f;
#X obj 165 171 makefilename \$0-r%%d%d;
#X msg 165 196 set \$1;
#X obj 165 220 makefilename;
#X obj 19 182 send;
#X connect 0 0 1 0;
#X connect 1 0 2 0;
#X connect 1 1 3 0;
#X connect 2 0 7 0;
#X connect 3 0 6 0;
#X connect 3 1 4 0;
#X connect 4 0 5 0;
#X connect 5 0 6 0;
#X connect 6 0 7 1;
#X restore 647 232 pd rout_osc;
#X text 683 209 ALGORITMO 8;
#X msg 647 209 4 4 1;
#X msg 657 164 1 1 \, 2 1 \, 3 1 \, 4 1;
#X connect 0 0 1 0;
#X connect 1 0 11 0;
#X connect 11 0 12 0;
#X connect 11 1 10 0;
#X connect 12 0 14 0;
#X connect 12 0 13 0;
#X connect 12 1 18 0;
#X connect 12 1 17 0;
#X connect 12 2 21 0;
#X connect 12 2 24 0;
#X connect 12 3 27 0;
#X connect 12 3 31 0;
#X connect 12 4 34 0;
#X connect 12 4 33 0;
#X connect 12 5 39 0;
#X connect 12 5 40 0;
#X connect 12 6 43 0;
#X connect 12 6 45 0;
#X connect 12 7 50 0;
#X connect 12 7 49 0;
#X connect 13 0 7 0;
#X connect 14 0 6 0;
#X connect 17 0 15 0;
#X connect 18 0 16 0;
#X connect 21 0 19 0;
#X connect 24 0 20 0;
#X connect 27 0 25 0;
#X connect 31 0 26 0;
#X connect 33 0 29 0;
#X connect 34 0 28 0;
#X connect 39 0 36 0;
#X connect 40 0 37 0;
#X connect 43 0 41 0;
#X connect 45 0 42 0;
#X connect 49 0 47 0;
#X connect 50 0 46 0;
#X restore 68 203 pd algorithms;
#X obj 68 139 hradio 15 1 1 8 empty empty empty 0 -8 0 10 -262144 -1
-1 5;
#X obj 68 161 + 1;
#X obj 27 473 *~ 0.25;
#X obj 25 16 inlet;
#X obj 25 38 route algorithm feedback toOscs;
#X floatatom 102 89 5 0 0 0 - - -, f 5;
#X obj 28 493 outlet~;
#X obj 187 93 s \$0-oscMsgs;
#X msg 187 67 allOscs \$1 \$2;
#X connect 0 0 3 0;
#X connect 1 0 0 1;
#X connect 2 0 0 0;
#X connect 4 0 8 1;
#X connect 5 0 11 1;
#X connect 6 0 14 1;
#X connect 7 0 8 0;
#X connect 8 0 9 0;
#X connect 10 0 11 0;
#X connect 11 0 12 0;
#X connect 13 0 14 0;
#X connect 14 0 15 0;
#X connect 16 0 24 0;
#X connect 18 0 27 0;
#X connect 20 0 21 0;
#X connect 22 0 23 0;
#X connect 23 0 20 0;
#X connect 24 0 28 0;
#X connect 25 0 26 0;
#X connect 26 0 20 0;
#X connect 26 1 27 0;
#X connect 26 2 29 0;
#X connect 26 3 30 0;
#X connect 27 0 19 0;
#X connect 30 0 29 0;
#X coords 0 527 1 526 85 60 0;
