#N canvas 567 23 684 532 10;
#X obj 89 321 phasor~;
#X obj 89 377 cos~;
#X floatatom 56 228 5 0 0 0 - - -, f 5;
#X obj 89 350 +~;
#X text 90 231 carrier_freq;
#X obj 121 17 inlet;
#X obj 89 479 outlet~;
#X text 406 18 parametros entrantes;
#X text 406 31 notes (note and vel);
#X text 403 50 "ratio" - scaling of note freq \;;
#X text 403 71 "level" - amplitude;
#X text 404 92 "env" - envelope settings (ADSR);
#X msg 535 29 60 127;
#X msg 600 51 ratio 1;
#X msg 524 70 level 0.25;
#X msg 604 91 env 1;
#X obj 64 266 * 1;
#X text 88 268 ratio;
#X obj 89 441 *~ 1;
#X obj 90 402 *~;
#X text 119 443 level;
#X obj 212 341 adsr 1 5 500 50 1000;
#X text 274 360 level = 1;
#X text 274 373 attack = 5 ms;
#X text 274 387 decay = 500 ms;
#X text 276 401 sustain = 50%;
#X text 275 415 release = 1000 ms;
#X obj 258 290 unpack f f f f;
#X text 349 287 env necesita \; noteon \, noteoff \; y un par de cositas
\; que se rutean acá;
#X obj 228 129 unpack f f;
#X text 222 101 aca recibe \; pitch y velocity;
#X obj 58 197 mtof;
#X obj 286 167 t f f;
#X obj 189 209 > 0;
#X obj 399 163 / 128;
#X text 406 180 divide por 128 \; el valor para \; obtener la amp-
\; litud del adsr \; en su segundo \; inlet;
#X text 215 205 esto tira un bool \; cuando el nro es \; mayor que
cero \; para activar el \; envolvente.;
#X obj 119 65 route ratio level env;
#X obj 66 42 route \$1;
#X obj 129 40 route allOscs;
#X text 29 66 esto \; por si el \; msje es para \; un osc o \; para
todos;
#X obj 36 319 inlet~;
#X connect 0 0 3 1;
#X connect 1 0 19 0;
#X connect 2 0 16 0;
#X connect 3 0 1 0;
#X connect 5 0 38 0;
#X connect 5 0 39 0;
#X connect 16 0 0 0;
#X connect 18 0 6 0;
#X connect 19 0 18 0;
#X connect 21 0 19 1;
#X connect 27 0 21 2;
#X connect 27 1 21 3;
#X connect 27 2 21 4;
#X connect 27 3 21 5;
#X connect 29 0 31 0;
#X connect 29 1 32 0;
#X connect 31 0 2 0;
#X connect 32 0 33 0;
#X connect 32 1 34 0;
#X connect 33 0 21 0;
#X connect 34 0 21 1;
#X connect 37 0 16 1;
#X connect 37 1 18 1;
#X connect 37 2 27 0;
#X connect 37 3 29 0;
#X connect 38 0 37 0;
#X connect 39 0 37 0;
#X connect 41 0 3 0;
