#N canvas 933 165 491 297 10;
#X obj 166 160 tgl 15 0 empty empty empty 17 7 0 10 -262144 -1 -1 1
1;
#X obj 187 109 tgl 15 0 empty empty empty 17 7 0 10 -1 -262144 -262144
0 1;
#X obj 207 160 tgl 15 0 empty empty empty 17 7 0 10 -262144 -1 -1 0
1;
#X obj 282 159 tgl 15 0 empty empty empty 17 7 0 10 -262144 -1 -1 0
1;
#X obj 323 158 tgl 15 0 empty empty empty 17 7 0 10 -262144 -1 -1 0
1;
#X obj 248 160 tgl 15 0 empty empty empty 17 7 0 10 -262144 -1 -1 0
1;
#X obj 362 157 tgl 15 0 empty empty empty 17 7 0 10 -262144 -1 -1 0
1;
#X obj 381 106 tgl 15 0 empty empty empty 17 7 0 10 -1 -262144 -262144
0 1;
#X obj 401 157 tgl 15 0 empty empty empty 17 7 0 10 -262144 -1 -1 0
1;
#N canvas 175 337 450 300 C 0;
#X obj 181 49 inlet;
#X obj 64 43 r \$0-noteIn;
#X obj 76 82 spigot;
#X obj 76 112 pack f f;
#X obj 79 142 sel 36 48 60 72, f 24;
#X msg 79 167 36;
#X msg 113 166 48;
#X msg 149 166 60;
#X msg 185 165 72;
#X obj 163 236 s \$0-noteOut;
#X connect 0 0 2 1;
#X connect 1 0 2 0;
#X connect 2 0 3 0;
#X connect 2 0 3 1;
#X connect 3 0 4 0;
#X connect 4 0 5 0;
#X connect 4 1 6 0;
#X connect 4 2 7 0;
#X connect 4 3 8 0;
#X connect 5 0 9 0;
#X connect 6 0 9 0;
#X connect 7 0 9 0;
#X connect 8 0 9 0;
#X restore 159 183 pd C;
#X obj 21 101 s \$0-noteIn;
#X obj 21 165 mtof;
#X obj 21 145 r \$0-noteOut;
#N canvas 0 23 450 300 C# 0;
#X obj 181 49 inlet;
#X obj 64 43 r \$0-noteIn;
#X obj 76 82 spigot;
#X obj 76 112 pack f f;
#X obj 163 236 s \$0-noteOut;
#X obj 79 142 sel 37 49 61 73, f 24;
#X msg 79 167 37;
#X msg 113 166 49;
#X msg 149 166 61;
#X msg 185 165 73;
#X connect 0 0 2 1;
#X connect 1 0 2 0;
#X connect 2 0 3 0;
#X connect 2 0 3 1;
#X connect 3 0 5 0;
#X connect 5 0 6 0;
#X connect 5 1 7 0;
#X connect 5 2 8 0;
#X connect 5 3 9 0;
#X connect 6 0 4 0;
#X connect 7 0 4 0;
#X connect 8 0 4 0;
#X connect 9 0 4 0;
#X restore 176 129 pd C#;
#N canvas 47 356 450 300 D 0;
#X obj 181 49 inlet;
#X obj 64 43 r \$0-noteIn;
#X obj 76 82 spigot;
#X obj 76 112 pack f f;
#X obj 163 236 s \$0-noteOut;
#X obj 79 142 sel 38 50 62 74, f 24;
#X msg 79 167 38;
#X msg 113 166 50;
#X msg 149 166 62;
#X msg 185 165 74;
#X connect 0 0 2 1;
#X connect 1 0 2 0;
#X connect 2 0 3 0;
#X connect 2 0 3 1;
#X connect 3 0 5 0;
#X connect 5 0 6 0;
#X connect 5 1 7 0;
#X connect 5 2 8 0;
#X connect 5 3 9 0;
#X connect 6 0 4 0;
#X connect 7 0 4 0;
#X connect 8 0 4 0;
#X connect 9 0 4 0;
#X restore 203 184 pd D;
#N canvas 0 23 450 300 D# 0;
#X obj 181 49 inlet;
#X obj 64 43 r \$0-noteIn;
#X obj 76 82 spigot;
#X obj 76 112 pack f f;
#X obj 163 236 s \$0-noteOut;
#X obj 78 142 sel 39 51 63 75, f 24;
#X msg 79 167 39;
#X msg 113 166 51;
#X msg 149 166 63;
#X msg 185 165 75;
#X connect 0 0 2 1;
#X connect 1 0 2 0;
#X connect 2 0 3 0;
#X connect 2 0 3 1;
#X connect 3 0 5 0;
#X connect 5 0 6 0;
#X connect 5 1 7 0;
#X connect 5 2 8 0;
#X connect 5 3 9 0;
#X connect 6 0 4 0;
#X connect 7 0 4 0;
#X connect 8 0 4 0;
#X connect 9 0 4 0;
#X restore 222 129 pd D#;
#N canvas 0 23 450 300 E 0;
#X obj 181 49 inlet;
#X obj 64 43 r \$0-noteIn;
#X obj 76 82 spigot;
#X obj 76 112 pack f f;
#X obj 163 236 s \$0-noteOut;
#X obj 77 142 sel 40 52 64 76, f 24;
#X msg 79 167 40;
#X msg 113 166 52;
#X msg 149 166 64;
#X msg 185 165 76;
#X connect 0 0 2 1;
#X connect 1 0 2 0;
#X connect 2 0 3 0;
#X connect 2 0 3 1;
#X connect 3 0 5 0;
#X connect 5 0 6 0;
#X connect 5 1 7 0;
#X connect 5 2 8 0;
#X connect 5 3 9 0;
#X connect 6 0 4 0;
#X connect 7 0 4 0;
#X connect 8 0 4 0;
#X connect 9 0 4 0;
#X restore 248 185 pd E;
#N canvas 0 23 450 300 F 0;
#X obj 181 49 inlet;
#X obj 64 43 r \$0-noteIn;
#X obj 76 82 spigot;
#X obj 76 112 pack f f;
#X obj 163 236 s \$0-noteOut;
#X obj 77 142 sel 41 53 65 77, f 24;
#X msg 79 167 41;
#X msg 113 166 53;
#X msg 149 166 65;
#X msg 186 165 77;
#X connect 0 0 2 1;
#X connect 1 0 2 0;
#X connect 2 0 3 0;
#X connect 2 0 3 1;
#X connect 3 0 5 0;
#X connect 5 0 6 0;
#X connect 5 1 7 0;
#X connect 5 2 8 0;
#X connect 5 3 9 0;
#X connect 6 0 4 0;
#X connect 7 0 4 0;
#X connect 8 0 4 0;
#X connect 9 0 4 0;
#X restore 282 184 pd F;
#N canvas 122 296 450 300 F# 0;
#X obj 181 49 inlet;
#X obj 64 43 r \$0-noteIn;
#X obj 76 82 spigot;
#X obj 76 112 pack f f;
#X obj 163 236 s \$0-noteOut;
#X obj 77 142 sel 42 54 66 78, f 24;
#X msg 79 167 42;
#X msg 113 166 54;
#X msg 149 166 66;
#X msg 185 165 78;
#X connect 0 0 2 1;
#X connect 1 0 2 0;
#X connect 2 0 3 0;
#X connect 2 0 3 1;
#X connect 3 0 5 0;
#X connect 5 0 6 0;
#X connect 5 1 7 0;
#X connect 5 2 8 0;
#X connect 5 3 9 0;
#X connect 6 0 4 0;
#X connect 7 0 4 0;
#X connect 8 0 4 0;
#X connect 9 0 4 0;
#X restore 301 129 pd F#;
#N canvas 0 23 450 300 G 0;
#X obj 181 49 inlet;
#X obj 64 43 r \$0-noteIn;
#X obj 76 82 spigot;
#X obj 76 112 pack f f;
#X obj 163 236 s \$0-noteOut;
#X obj 76 142 sel 43 55 67 79, f 24;
#X msg 79 167 43;
#X msg 113 166 55;
#X msg 150 166 67;
#X msg 185 165 79;
#X connect 0 0 2 1;
#X connect 1 0 2 0;
#X connect 2 0 3 0;
#X connect 2 0 3 1;
#X connect 3 0 5 0;
#X connect 5 0 6 0;
#X connect 5 1 7 0;
#X connect 5 2 8 0;
#X connect 5 3 9 0;
#X connect 6 0 4 0;
#X connect 7 0 4 0;
#X connect 8 0 4 0;
#X connect 9 0 4 0;
#X restore 322 184 pd G;
#N canvas 0 23 450 300 G# 0;
#X obj 181 49 inlet;
#X obj 64 43 r \$0-noteIn;
#X obj 76 82 spigot;
#X obj 76 112 pack f f;
#X obj 163 236 s \$0-noteOut;
#X obj 76 142 sel 44 56 68 80, f 24;
#X msg 79 167 44;
#X msg 113 166 56;
#X msg 150 166 68;
#X msg 185 165 80;
#X connect 0 0 2 1;
#X connect 1 0 2 0;
#X connect 2 0 3 0;
#X connect 2 0 3 1;
#X connect 3 0 5 0;
#X connect 5 0 6 0;
#X connect 5 1 7 0;
#X connect 5 2 8 0;
#X connect 5 3 9 0;
#X connect 6 0 4 0;
#X connect 7 0 4 0;
#X connect 8 0 4 0;
#X connect 9 0 4 0;
#X restore 347 129 pd G#;
#N canvas 0 23 450 300 A 0;
#X obj 181 49 inlet;
#X obj 64 43 r \$0-noteIn;
#X obj 76 82 spigot;
#X obj 76 112 pack f f;
#X obj 163 236 s \$0-noteOut;
#X obj 75 142 sel 45 57 69 81, f 24;
#X msg 79 167 45;
#X msg 113 166 57;
#X msg 150 166 69;
#X msg 185 165 81;
#X connect 0 0 2 1;
#X connect 1 0 2 0;
#X connect 2 0 3 0;
#X connect 2 0 3 1;
#X connect 3 0 5 0;
#X connect 5 0 6 0;
#X connect 5 1 7 0;
#X connect 5 2 8 0;
#X connect 5 3 9 0;
#X connect 6 0 4 0;
#X connect 7 0 4 0;
#X connect 8 0 4 0;
#X connect 9 0 4 0;
#X restore 361 180 pd A;
#N canvas 0 23 450 300 A# 0;
#X obj 181 49 inlet;
#X obj 64 43 r \$0-noteIn;
#X obj 76 82 spigot;
#X obj 76 112 pack f f;
#X obj 163 236 s \$0-noteOut;
#X obj 75 142 sel 46 58 70 82, f 24;
#X msg 79 167 46;
#X msg 113 166 58;
#X msg 150 166 70;
#X msg 185 165 82;
#X connect 0 0 2 1;
#X connect 1 0 2 0;
#X connect 2 0 3 0;
#X connect 2 0 3 1;
#X connect 3 0 5 0;
#X connect 5 0 6 0;
#X connect 5 1 7 0;
#X connect 5 2 8 0;
#X connect 5 3 9 0;
#X connect 6 0 4 0;
#X connect 7 0 4 0;
#X connect 8 0 4 0;
#X connect 9 0 4 0;
#X restore 386 128 pd A#;
#N canvas 0 23 450 300 B 0;
#X obj 180 49 inlet;
#X obj 63 43 r \$0-noteIn;
#X obj 75 82 spigot;
#X obj 75 112 pack f f;
#X obj 162 236 s \$0-noteOut;
#X obj 74 142 sel 47 59 71 83, f 24;
#X msg 78 167 47;
#X msg 112 166 59;
#X msg 149 166 71;
#X msg 184 165 83;
#X connect 0 0 2 1;
#X connect 1 0 2 0;
#X connect 2 0 3 0;
#X connect 2 0 3 1;
#X connect 3 0 5 0;
#X connect 5 0 6 0;
#X connect 5 1 7 0;
#X connect 5 2 8 0;
#X connect 5 3 9 0;
#X connect 6 0 4 0;
#X connect 7 0 4 0;
#X connect 8 0 4 0;
#X connect 9 0 4 0;
#X restore 402 180 pd B;
#X obj 222 108 tgl 15 0 empty empty empty 17 7 0 10 -1 -262144 -262144
0 1;
#X obj 303 108 tgl 15 0 empty empty empty 17 7 0 10 -1 -262144 -262144
0 1;
#X obj 347 107 tgl 15 0 empty empty empty 17 7 0 10 -1 -262144 -262144
0 1;
#X obj 21 81 i;
#X obj 21 61 ftom;
#X obj 166 70 route 1 2 3 4 5 6 7 8 9 10 11 12, f 48;
#X obj 21 36 inlet;
#X text 18 10 recibe valores \; de frecuencia;
#X obj 166 47 inlet;
#X text 206 23 recibe mensajes de dos componentes \; primero la nota
(1=do \, 2=do# \, 3=re \, etc) \; segundo el estado (0=off \, 1=on)
;
#X obj 21 188 outlet;
#X text 19 209 envía frecuencia \; según escala \; seleccionada;
#X floatatom 104 172 5 0 0 0 - - -, f 5;
#X connect 0 0 9 0;
#X connect 1 0 13 0;
#X connect 2 0 14 0;
#X connect 3 0 17 0;
#X connect 4 0 19 0;
#X connect 5 0 16 0;
#X connect 6 0 21 0;
#X connect 7 0 22 0;
#X connect 8 0 23 0;
#X connect 11 0 34 0;
#X connect 12 0 11 0;
#X connect 12 0 36 0;
#X connect 24 0 15 0;
#X connect 25 0 18 0;
#X connect 26 0 20 0;
#X connect 27 0 10 0;
#X connect 28 0 27 0;
#X connect 29 0 0 0;
#X connect 29 1 1 0;
#X connect 29 2 2 0;
#X connect 29 3 24 0;
#X connect 29 4 5 0;
#X connect 29 5 3 0;
#X connect 29 6 25 0;
#X connect 29 7 4 0;
#X connect 29 8 26 0;
#X connect 29 9 6 0;
#X connect 29 10 7 0;
#X connect 29 11 8 0;
#X connect 30 0 28 0;
#X connect 32 0 29 0;
